<?xml version="1.0" encoding="UTF-8"?>
<svg width="264px" height="240px" viewBox="0 0 264 240" version="1.1" xmlns="http://www.w3.org/2000/svg" xmlns:xlink="http://www.w3.org/1999/xlink">
    <!-- Generator: Sketch 46.2 (44496) - http://www.bohemiancoding.com/sketch -->
    <title>Artboard Copy</title>
    <desc>Created with Sketch.</desc>
    <defs></defs>
    <g id="Page-1" stroke="none" stroke-width="1" fill="none" fill-rule="evenodd">
        <g id="Artboard-Copy" fill="#363636">
            <g id="Logo-Mono-Copy">
                <path d="M29.8064516,240 L43.7358849,194.546061 C16.8842646,174.12169 0,144.517042 0,111.578947 C0,49.9555963 59.098413,0 132,0 C204.901587,0 264,49.9555963 264,111.578947 C264,142.277436 251.381904,159.663764 227.649134,179.837728 L241.996504,223.157895 L210.432297,203.772819 C189.884866,214.925192 158.232096,223.157895 132,223.157895 C110.511357,223.157895 90.2220005,218.817511 72.291959,211.117309 L29.8064516,240 Z M10.6451613,111.421017 C10.6451613,112.94467 10.6451613,114.446864 10.7743265,115.949058 C10.7743265,116.507016 10.7743265,117.064974 10.8819641,117.622931 C10.8819641,118.545708 11.0326568,119.447024 11.1187669,120.34834 C11.2048771,121.249657 11.2479321,121.721775 11.3340422,122.494332 C11.4919108,123.739006 11.6784827,124.976528 11.893758,126.206897 C13.1638823,101.098799 29.1157817,79.402827 47.9738976,63.2864323 C77.3159204,38.1783345 130.618084,14.7011899 165.341989,44.0368907 C169.889949,47.9588219 173.964538,52.3951047 177.483516,57.256197 C192.2609,62.2149061 206.090165,69.6302303 218.385822,79.1882278 C230.096798,88.3301507 243.314701,107.136462 249.170189,121.750663 L249.170189,111.421017 C249.170189,55.6037835 195.781916,10.3448276 129.907675,10.3448276 C64.0334347,10.3448276 10.6451613,55.6037835 10.6451613,111.421017 Z M160.69474,184.624746 C140.623496,192.370458 108.18372,202.135521 86.6126465,200.689655 L77.5995551,204.985943 C83.2178536,206.906944 93.4714216,208.955201 99.3100245,210.170406 C101.177459,210.55597 108.926577,211.760858 110.735194,212.008721 C113.499585,212.256584 115.455245,212.435596 116.602173,212.545757 L123.968982,212.958862 C126.174613,212.958862 128.181737,213.103448 130.3212,213.103448 C131.747508,213.103448 134.136941,213.062138 137.489501,212.979517 C138.469782,212.979517 140.337216,212.890011 143.091804,212.710999 C144.268141,212.610018 146.584054,212.35527 150.039543,211.946755 L155.61979,211.120546 C156.688296,210.946124 158.938039,210.512364 162.369021,209.819267 L170.375463,207.836365 C171.316532,207.574732 174.897007,206.431809 181.116887,204.407597 C184.366517,203.223363 200.353088,197.088018 201.345622,196.592292 L184.607024,184.624746 C177.626907,185.094458 167.687779,184.874302 160.69474,184.624746 Z M238.823787,135.23157 C239.336732,113.26505 221.755099,96.0146073 204.880977,85.0223817 C203.607458,84.1855617 202.292668,83.3606966 200.936607,82.5477859 C196.75175,79.9968842 192.422571,77.6976396 187.971479,75.6619543 C207.534141,106.917174 209.409043,157.39534 175.41317,175.829284 C174.175027,176.492763 172.901508,177.13831 171.627989,177.747993 L177.181946,177.747993 C178.950722,177.747993 180.807936,177.658333 182.488274,177.550742 C189.77563,177.13831 192.570296,179.720496 198.743325,184.006209 L201.502615,185.924918 L202.139374,185.548349 L201.520303,185.942849 L223.930694,201.579425 L213.954798,177.263833 L213.477228,177.640401 L213.954798,177.245901 L212.893532,174.681646 C212.972621,174.597501 213.079859,174.54634 213.194224,174.538191 C225.38109,166.146084 238.470032,151.208851 238.823787,135.23157 Z M150.759326,43.6425658 C123.093836,28.317995 89.6583033,44.6145696 67.2363122,61.9038288 C45.6918939,78.4485746 22.216815,103.513865 25.6612892,132.053551 C28.2281904,153.251506 41.0188174,172.919073 58.8116107,185.823975 L58.679975,185.823975 C58.9213076,185.94806 59.0748828,186.051465 59.0529436,186.134189 L46.6572243,219.016871 L77.0431908,196.102398 C85.0291055,190.042885 89.0001236,189.898118 98.7850629,190.104928 C140.22845,191.283741 187.354122,174.4081 188.429149,128.393026 C189.109268,99.4604018 179.126875,59.3393932 150.759326,43.6425658 Z" id="Combined-Shape" fill-rule="nonzero"></path>
                <path d="M81,62.7481304 C81,62.7481304 107.211172,36.1839307 140.705722,49.9656705 C176.807902,64.8299642 180,118 180,118 C141.200273,31.3332578 81,62.7481304 81,62.7481304 L81,62.7481304 L81,62.7481304 Z" id="Path"></path>
            </g>
        </g>
    </g>
</svg>