<svg width="264" height="240" viewBox="0 0 264 240" xmlns="http://www.w3.org/2000/svg"><title>Artboard Copy</title><g fill="#363636" fill-rule="evenodd"><path d="M29.806 240l13.93-45.454C16.884 174.122 0 144.517 0 111.58 0 49.956 59.098 0 132 0s132 49.956 132 111.579c0 30.698-12.618 48.085-36.35 68.259l14.347 43.32-31.565-19.385c-20.547 11.152-52.2 19.385-78.432 19.385-21.489 0-41.778-4.34-59.708-12.04L29.806 240zm-19.16-128.579c0 1.524 0 3.026.128 4.528 0 .558 0 1.116.108 1.674 0 .923.15 1.824.237 2.725.086.902.129 1.374.215 2.146a79.79 79.79 0 0 0 .56 3.713c1.27-25.108 17.222-46.804 36.08-62.92 29.342-25.109 82.644-48.586 117.368-19.25a77.346 77.346 0 0 1 12.142 13.22 138.368 138.368 0 0 1 40.902 21.931c11.71 9.142 24.929 27.948 30.784 42.563v-10.33c0-55.817-53.388-101.076-119.262-101.076-65.875 0-119.263 45.259-119.263 101.076zm150.049 73.204c-20.072 7.745-52.511 17.51-74.082 16.065l-9.013 4.296c5.618 1.92 15.871 3.97 21.71 5.184 1.867.386 9.617 1.59 11.425 1.839 2.765.248 4.72.427 5.867.537l7.367.413c2.206 0 4.213.144 6.352.144 1.427 0 3.816-.04 7.169-.123.98 0 2.847-.09 5.602-.269 1.176-.101 3.492-.356 6.948-.764l5.58-.826c1.068-.175 3.318-.609 6.749-1.302l8.006-1.983c.942-.261 4.522-1.404 10.742-3.428 3.25-1.185 19.236-7.32 20.229-7.816l-16.739-11.967c-6.98.47-16.92.25-23.912 0zm78.129-49.393c.513-21.967-17.069-39.217-33.943-50.21a112.717 112.717 0 0 0-3.944-2.474 123.986 123.986 0 0 0-12.966-6.886c19.563 31.255 21.438 81.733-12.558 100.167a93.841 93.841 0 0 1-3.785 1.919h5.554c1.769 0 3.626-.09 5.306-.197 7.288-.413 10.082 2.17 16.255 6.455l2.76 1.919.636-.377-.619.395 22.41 15.636-9.975-24.315-.478.376.478-.394-1.061-2.564a.457.457 0 0 1 .3-.144c12.187-8.392 25.276-23.33 25.63-39.306zm-88.065-91.59c-27.665-15.324-61.1.973-83.523 18.262-21.544 16.545-45.02 41.61-41.575 70.15 2.567 21.198 15.358 40.865 33.15 53.77h-.131c.241.124.395.227.373.31l-12.396 32.883 30.386-22.915c7.986-6.06 11.957-6.204 21.742-5.997 41.443 1.179 88.57-15.697 89.644-61.712.68-28.933-9.302-69.054-37.67-84.75z" fill-rule="nonzero"/><path d="M81 62.748s26.211-26.564 59.706-12.782C176.808 64.83 180 118 180 118c-38.8-86.667-99-55.252-99-55.252z"/></g></svg>